# xmcd CD database file
#
# Track frame offsets:
#	187
#	35614
#	40247
#	74044
#	79652
#	94249
#	111259
#	121772
#
# Disc length: 2488 seconds
#
# Revision: 3
# Processed by: cddbd v1.5.1PL0 Copyright (c) Steve Scherf et al.
# Submitted via: CDex 1.51
#
DISCID=6a09b608
DTITLE=RETURN TO FOREVER - Where Have I Known You Before
DYEAR=1974
DGENRE=Fusion
TTITLE0=Vulcan Worlds
TTITLE1=Where Have I Loved You Before
TTITLE2=The Shadow Of Lo
TTITLE3=Where Have I Danced With You Before
TTITLE4=Beyond The Seventh Galaxy
TTITLE5=Earth Juice
TTITLE6=Where Have I Know You Before
TTITLE7=Song To The Pharoah Kings
EXTD=YEAR: 1974
EXTT0=
EXTT1=
EXTT2=
EXTT3=
EXTT4=
EXTT5=
EXTT6=
EXTT7=
PLAYORDER=
